<svg width="40" height="24" viewBox="0 0 40 24" fill="none" xmlns="http://www.w3.org/2000/svg">
<line x1="2" y1="1.5" x2="38" y2="1.5" stroke="black"/>
<path d="M2 0.55C1.19919 0.55 0.55 1.19919 0.55 2C0.55 2.80081 1.19919 3.45 2 3.45V0.55ZM38 3.45C38.8008 3.45 39.45 2.80081 39.45 2C39.45 1.19919 38.8008 0.55 38 0.55V3.45ZM2 3.45H38V0.55H2V3.45ZM38 0.55H2V3.45H38V0.55Z" fill="black"/>
<line x1="2" y1="11.4" x2="38" y2="11.4" stroke="black"/>
<path d="M2 10.45C1.19919 10.45 0.55 11.0992 0.55 11.9C0.55 12.7008 1.19919 13.35 2 13.35V10.45ZM38 13.35C38.8008 13.35 39.45 12.7008 39.45 11.9C39.45 11.0992 38.8008 10.45 38 10.45V13.35ZM2 13.35H38V10.45H2V13.35ZM38 10.45H2V13.35H38V10.45Z" fill="black"/>
<line x1="2" y1="21.2999" x2="38" y2="21.2999" stroke="black"/>
<path d="M2 20.3499C1.19919 20.3499 0.55 20.9991 0.55 21.7999C0.55 22.6007 1.19919 23.2499 2 23.2499V20.3499ZM38 23.2499C38.8008 23.2499 39.45 22.6007 39.45 21.7999C39.45 20.9991 38.8008 20.3499 38 20.3499V23.2499ZM2 23.2499H38V20.3499H2V23.2499ZM38 20.3499H2V23.2499H38V20.3499Z" fill="black"/>
</svg>
